# xmcd CD database file
#
# Track frame offsets:
#	150
#	19830
#	48499
#	62998
#	78651
#	104391
#	120592
#	144492
#	164681
#	178609
#	196810
#	212620
#	225991
#
# Disc length: 3187 seconds
#
# Revision: 0
# Processed by: cddbd v1.5.2PL0 Copyright (c) Steve Scherf et al.
# Submitted via: CDex 1.51
#
DISCID=b20c710d
DTITLE=Various Artist - Mission Saturn - Reise zum Herrn der Ringe
DYEAR=2004
DGENRE=New Age
TTITLE0=01 - spaces of freedom [Edvin Marton]
TTITLE1=02 - viaggio 2 [Ludovico Einaudi]
TTITLE2=03 - cadenza  [Ludovico Einaudi]
TTITLE3=04 - art on ice  [Edvin Marton]
TTITLE4=05 - a different shore [Nightnoise]
TTITLE5=06 - alta pressione  [Ludovico Einaudi]
TTITLE6=07 - una furtiva lagrima  [Edvin Marton]
TTITLE7=08 - fuori dalla notte  [Ludovico Einaudi]
TTITLE8=09 - rio amazonas [Oystein Sevag and Lakki Patey]
TTITLE9=10 - birdman  [Edvin Marton]
TTITLE10=11 - king of the forest  [Edvin Marton]
TTITLE11=12 - wind of spring  [Edvin Marton]
TTITLE12=13 - ah, da hängt ja der mond! [Carl Orff]
EXTD=YEAR: 2004
EXTT0=
EXTT1=
EXTT2=
EXTT3=
EXTT4=
EXTT5=
EXTT6=
EXTT7=
EXTT8=
EXTT9=
EXTT10=
EXTT11=
EXTT12=
PLAYORDER=
